<mxfile host="app.diagrams.net" agent="Mozilla/5.0 (Windows NT 10.0; Win64; x64) AppleWebKit/537.36 (KHTML, like Gecko) Chrome/131.0.0.0 Safari/537.36" version="25.0.3">
  <diagram id="C5RBs43oDa-KdzZeNtuy" name="Page-1">
    <mxGraphModel dx="880" dy="528" grid="1" gridSize="10" guides="1" tooltips="1" connect="1" arrows="1" fold="1" page="1" pageScale="1" pageWidth="827" pageHeight="1169" math="0" shadow="0">
      <root>
        <mxCell id="WIyWlLk6GJQsqaUBKTNV-0" />
        <mxCell id="WIyWlLk6GJQsqaUBKTNV-1" parent="WIyWlLk6GJQsqaUBKTNV-0" />
        <mxCell id="tWb7OAQj0UzKCOv5cBuM-6" value="" style="edgeStyle=none;curved=1;rounded=0;orthogonalLoop=1;jettySize=auto;html=1;fontSize=12;startSize=8;endSize=8;" edge="1" parent="WIyWlLk6GJQsqaUBKTNV-1" source="tWb7OAQj0UzKCOv5cBuM-0" target="tWb7OAQj0UzKCOv5cBuM-4">
          <mxGeometry relative="1" as="geometry" />
        </mxCell>
        <mxCell id="tWb7OAQj0UzKCOv5cBuM-0" value="INICIO" style="ellipse;whiteSpace=wrap;html=1;aspect=fixed;" vertex="1" parent="WIyWlLk6GJQsqaUBKTNV-1">
          <mxGeometry x="370" y="40" width="60" height="60" as="geometry" />
        </mxCell>
        <mxCell id="tWb7OAQj0UzKCOv5cBuM-5" value="" style="edgeStyle=none;curved=1;rounded=0;orthogonalLoop=1;jettySize=auto;html=1;fontSize=12;startSize=8;endSize=8;" edge="1" parent="WIyWlLk6GJQsqaUBKTNV-1" source="tWb7OAQj0UzKCOv5cBuM-3" target="tWb7OAQj0UzKCOv5cBuM-4">
          <mxGeometry relative="1" as="geometry" />
        </mxCell>
        <mxCell id="tWb7OAQj0UzKCOv5cBuM-3" value="Mostrar Mensaje: &quot;Por favor ingrese la edad del cliente: &quot;" style="shape=parallelogram;perimeter=parallelogramPerimeter;whiteSpace=wrap;html=1;fixedSize=1;" vertex="1" parent="WIyWlLk6GJQsqaUBKTNV-1">
          <mxGeometry x="290" y="120" width="220" height="60" as="geometry" />
        </mxCell>
        <mxCell id="tWb7OAQj0UzKCOv5cBuM-8" value="" style="edgeStyle=none;curved=1;rounded=0;orthogonalLoop=1;jettySize=auto;html=1;fontSize=12;startSize=8;endSize=8;" edge="1" parent="WIyWlLk6GJQsqaUBKTNV-1" source="tWb7OAQj0UzKCOv5cBuM-4" target="tWb7OAQj0UzKCOv5cBuM-7">
          <mxGeometry relative="1" as="geometry" />
        </mxCell>
        <mxCell id="tWb7OAQj0UzKCOv5cBuM-9" value="SI" style="edgeLabel;html=1;align=center;verticalAlign=middle;resizable=0;points=[];fontSize=12;" vertex="1" connectable="0" parent="tWb7OAQj0UzKCOv5cBuM-8">
          <mxGeometry x="0.06" y="-2" relative="1" as="geometry">
            <mxPoint as="offset" />
          </mxGeometry>
        </mxCell>
        <mxCell id="tWb7OAQj0UzKCOv5cBuM-11" value="" style="edgeStyle=none;curved=1;rounded=0;orthogonalLoop=1;jettySize=auto;html=1;fontSize=12;startSize=8;endSize=8;" edge="1" parent="WIyWlLk6GJQsqaUBKTNV-1" source="tWb7OAQj0UzKCOv5cBuM-4" target="tWb7OAQj0UzKCOv5cBuM-10">
          <mxGeometry relative="1" as="geometry" />
        </mxCell>
        <mxCell id="tWb7OAQj0UzKCOv5cBuM-12" value="NO" style="edgeLabel;html=1;align=center;verticalAlign=middle;resizable=0;points=[];fontSize=12;" vertex="1" connectable="0" parent="tWb7OAQj0UzKCOv5cBuM-11">
          <mxGeometry x="-0.2" y="-2" relative="1" as="geometry">
            <mxPoint as="offset" />
          </mxGeometry>
        </mxCell>
        <mxCell id="tWb7OAQj0UzKCOv5cBuM-4" value="Es mayor a 18?" style="rhombus;whiteSpace=wrap;html=1;" vertex="1" parent="WIyWlLk6GJQsqaUBKTNV-1">
          <mxGeometry x="330" y="220" width="140" height="80" as="geometry" />
        </mxCell>
        <mxCell id="tWb7OAQj0UzKCOv5cBuM-18" style="edgeStyle=none;curved=1;rounded=0;orthogonalLoop=1;jettySize=auto;html=1;exitX=0.5;exitY=1;exitDx=0;exitDy=0;entryX=1;entryY=0.5;entryDx=0;entryDy=0;fontSize=12;startSize=8;endSize=8;" edge="1" parent="WIyWlLk6GJQsqaUBKTNV-1" source="tWb7OAQj0UzKCOv5cBuM-7" target="tWb7OAQj0UzKCOv5cBuM-13">
          <mxGeometry relative="1" as="geometry">
            <Array as="points">
              <mxPoint x="630" y="490" />
            </Array>
          </mxGeometry>
        </mxCell>
        <mxCell id="tWb7OAQj0UzKCOv5cBuM-7" value="Mostrar Mensaje: &quot;Podés ingresar tranquilo&quot;" style="whiteSpace=wrap;html=1;" vertex="1" parent="WIyWlLk6GJQsqaUBKTNV-1">
          <mxGeometry x="570" y="230" width="120" height="60" as="geometry" />
        </mxCell>
        <mxCell id="tWb7OAQj0UzKCOv5cBuM-14" value="" style="edgeStyle=none;curved=1;rounded=0;orthogonalLoop=1;jettySize=auto;html=1;fontSize=12;startSize=8;endSize=8;" edge="1" parent="WIyWlLk6GJQsqaUBKTNV-1" source="tWb7OAQj0UzKCOv5cBuM-10" target="tWb7OAQj0UzKCOv5cBuM-13">
          <mxGeometry relative="1" as="geometry" />
        </mxCell>
        <mxCell id="tWb7OAQj0UzKCOv5cBuM-10" value="&quot;No podés ingresar&quot;" style="whiteSpace=wrap;html=1;" vertex="1" parent="WIyWlLk6GJQsqaUBKTNV-1">
          <mxGeometry x="340" y="340" width="120" height="60" as="geometry" />
        </mxCell>
        <mxCell id="tWb7OAQj0UzKCOv5cBuM-13" value="FIN" style="ellipse;whiteSpace=wrap;html=1;" vertex="1" parent="WIyWlLk6GJQsqaUBKTNV-1">
          <mxGeometry x="360" y="440" width="80" height="80" as="geometry" />
        </mxCell>
      </root>
    </mxGraphModel>
  </diagram>
</mxfile>
